<svg width="400" height="62" viewBox="0 0 400 62" fill="none" xmlns="http://www.w3.org/2000/svg">
<path d="M7.922 13.132V37H2.108V13.132H7.922ZM34.6093 18.028V37H28.7953V34.416C28.206 35.2547 27.4013 35.9347 26.3813 36.456C25.384 36.9547 24.2733 37.204 23.0493 37.204C21.5987 37.204 20.318 36.8867 19.2073 36.252C18.0967 35.5947 17.2353 34.654 16.6233 33.43C16.0113 32.206 15.7053 30.7667 15.7053 29.112V18.028H21.4853V28.33C21.4853 29.5993 21.814 30.5853 22.4713 31.288C23.1287 31.9907 24.0127 32.342 25.1233 32.342C26.2567 32.342 27.152 31.9907 27.8093 31.288C28.4667 30.5853 28.7953 29.5993 28.7953 28.33V18.028H34.6093ZM48.3395 11.84V37H42.5255V11.84H48.3395ZM59.2168 16.056C58.1968 16.056 57.3582 15.7613 56.7008 15.172C56.0662 14.56 55.7488 13.812 55.7488 12.928C55.7488 12.0213 56.0662 11.2733 56.7008 10.684C57.3582 10.072 58.1968 9.766 59.2168 9.766C60.2142 9.766 61.0302 10.072 61.6648 10.684C62.3222 11.2733 62.6508 12.0213 62.6508 12.928C62.6508 13.812 62.3222 14.56 61.6648 15.172C61.0302 15.7613 60.2142 16.056 59.2168 16.056ZM62.1068 18.028V37H56.2928V18.028H62.1068ZM72.9842 16.056C71.9642 16.056 71.1255 15.7613 70.4682 15.172C69.8335 14.56 69.5162 13.812 69.5162 12.928C69.5162 12.0213 69.8335 11.2733 70.4682 10.684C71.1255 10.072 71.9642 9.766 72.9842 9.766C73.9815 9.766 74.7975 10.072 75.4322 10.684C76.0895 11.2733 76.4182 12.0213 76.4182 12.928C76.4182 13.812 76.0895 14.56 75.4322 15.172C74.7975 15.7613 73.9815 16.056 72.9842 16.056ZM75.8742 18.028V37H70.0602V18.028H75.8742ZM82.6715 27.48C82.6715 25.5307 83.0342 23.8193 83.7595 22.346C84.5075 20.8727 85.5162 19.7393 86.7855 18.946C88.0549 18.1527 89.4715 17.756 91.0355 17.756C92.3729 17.756 93.5402 18.028 94.5375 18.572C95.5575 19.116 96.3395 19.83 96.8835 20.714V18.028H102.698V37H96.8835V34.314C96.3169 35.198 95.5235 35.912 94.5035 36.456C93.5062 37 92.3389 37.272 91.0015 37.272C89.4602 37.272 88.0549 36.8753 86.7855 36.082C85.5162 35.266 84.5075 34.1213 83.7595 32.648C83.0342 31.152 82.6715 29.4293 82.6715 27.48ZM96.8835 27.514C96.8835 26.0633 96.4755 24.9187 95.6595 24.08C94.8662 23.2413 93.8915 22.822 92.7355 22.822C91.5795 22.822 90.5935 23.2413 89.7775 24.08C88.9842 24.896 88.5875 26.0293 88.5875 27.48C88.5875 28.9307 88.9842 30.0867 89.7775 30.948C90.5935 31.7867 91.5795 32.206 92.7355 32.206C93.8915 32.206 94.8662 31.7867 95.6595 30.948C96.4755 30.1093 96.8835 28.9647 96.8835 27.514ZM136.039 24.76C137.421 25.0547 138.532 25.746 139.371 26.834C140.209 27.8993 140.629 29.1233 140.629 30.506C140.629 32.5007 139.926 34.0873 138.521 35.266C137.138 36.422 135.2 37 132.707 37H121.589V13.132H132.333C134.758 13.132 136.651 13.6873 138.011 14.798C139.393 15.9087 140.085 17.416 140.085 19.32C140.085 20.7253 139.711 21.8927 138.963 22.822C138.237 23.7513 137.263 24.3973 136.039 24.76ZM127.403 22.788H131.211C132.163 22.788 132.888 22.584 133.387 22.176C133.908 21.7453 134.169 21.122 134.169 20.306C134.169 19.49 133.908 18.8667 133.387 18.436C132.888 18.0053 132.163 17.79 131.211 17.79H127.403V22.788ZM131.687 32.308C132.661 32.308 133.409 32.0927 133.931 31.662C134.475 31.2087 134.747 30.5627 134.747 29.724C134.747 28.8853 134.463 28.228 133.897 27.752C133.353 27.276 132.593 27.038 131.619 27.038H127.403V32.308H131.687ZM146.585 27.48C146.585 25.5307 146.948 23.8193 147.673 22.346C148.421 20.8727 149.43 19.7393 150.699 18.946C151.968 18.1527 153.385 17.756 154.949 17.756C156.286 17.756 157.454 18.028 158.451 18.572C159.471 19.116 160.253 19.83 160.797 20.714V18.028H166.611V37H160.797V34.314C160.23 35.198 159.437 35.912 158.417 36.456C157.42 37 156.252 37.272 154.915 37.272C153.374 37.272 151.968 36.8753 150.699 36.082C149.43 35.266 148.421 34.1213 147.673 32.648C146.948 31.152 146.585 29.4293 146.585 27.48ZM160.797 27.514C160.797 26.0633 160.389 24.9187 159.573 24.08C158.78 23.2413 157.805 22.822 156.649 22.822C155.493 22.822 154.507 23.2413 153.691 24.08C152.898 24.896 152.501 26.0293 152.501 27.48C152.501 28.9307 152.898 30.0867 153.691 30.948C154.507 31.7867 155.493 32.206 156.649 32.206C157.805 32.206 158.78 31.7867 159.573 30.948C160.389 30.1093 160.797 28.9647 160.797 27.514ZM186.151 37L180.371 29.044V37H174.557V11.84H180.371V25.746L186.117 18.028H193.291L185.403 27.548L193.359 37H186.151ZM210.977 17.824C213.153 17.824 214.898 18.5493 216.213 20C217.527 21.428 218.185 23.4 218.185 25.916V37H212.405V26.698C212.405 25.4287 212.076 24.4427 211.419 23.74C210.761 23.0373 209.877 22.686 208.767 22.686C207.656 22.686 206.772 23.0373 206.115 23.74C205.457 24.4427 205.129 25.4287 205.129 26.698V37H199.315V11.84H205.129V20.578C205.718 19.7393 206.523 19.0707 207.543 18.572C208.563 18.0733 209.707 17.824 210.977 17.824ZM236.539 32.07V37H233.581C231.473 37 229.829 36.49 228.651 35.47C227.472 34.4273 226.883 32.7387 226.883 30.404V22.856H224.571V18.028H226.883V13.404H232.697V18.028H236.505V22.856H232.697V30.472C232.697 31.0387 232.833 31.4467 233.105 31.696C233.377 31.9453 233.83 32.07 234.465 32.07H236.539ZM252.153 37.272C250.295 37.272 248.617 36.8753 247.121 36.082C245.648 35.2887 244.481 34.1553 243.619 32.682C242.781 31.2087 242.361 29.486 242.361 27.514C242.361 25.5647 242.792 23.8533 243.653 22.38C244.515 20.884 245.693 19.7393 247.189 18.946C248.685 18.1527 250.363 17.756 252.221 17.756C254.08 17.756 255.757 18.1527 257.253 18.946C258.749 19.7393 259.928 20.884 260.789 22.38C261.651 23.8533 262.081 25.5647 262.081 27.514C262.081 29.4633 261.639 31.186 260.755 32.682C259.894 34.1553 258.704 35.2887 257.185 36.082C255.689 36.8753 254.012 37.272 252.153 37.272ZM252.153 32.24C253.264 32.24 254.205 31.832 254.975 31.016C255.769 30.2 256.165 29.0327 256.165 27.514C256.165 25.9953 255.78 24.828 255.009 24.012C254.261 23.196 253.332 22.788 252.221 22.788C251.088 22.788 250.147 23.196 249.399 24.012C248.651 24.8053 248.277 25.9727 248.277 27.514C248.277 29.0327 248.64 30.2 249.365 31.016C250.113 31.832 251.043 32.24 252.153 32.24ZM271.83 16.056C270.81 16.056 269.971 15.7613 269.314 15.172C268.679 14.56 268.362 13.812 268.362 12.928C268.362 12.0213 268.679 11.2733 269.314 10.684C269.971 10.072 270.81 9.766 271.83 9.766C272.827 9.766 273.643 10.072 274.278 10.684C274.935 11.2733 275.264 12.0213 275.264 12.928C275.264 13.812 274.935 14.56 274.278 15.172C273.643 15.7613 272.827 16.056 271.83 16.056ZM274.72 18.028V37H268.906V18.028H274.72ZM281.517 27.48C281.517 25.5307 281.88 23.8193 282.605 22.346C283.353 20.8727 284.362 19.7393 285.631 18.946C286.9 18.1527 288.317 17.756 289.881 17.756C291.218 17.756 292.386 18.028 293.383 18.572C294.403 19.116 295.185 19.83 295.729 20.714V18.028H301.543V37H295.729V34.314C295.162 35.198 294.369 35.912 293.349 36.456C292.352 37 291.184 37.272 289.847 37.272C288.306 37.272 286.9 36.8753 285.631 36.082C284.362 35.266 283.353 34.1213 282.605 32.648C281.88 31.152 281.517 29.4293 281.517 27.48ZM295.729 27.514C295.729 26.0633 295.321 24.9187 294.505 24.08C293.712 23.2413 292.737 22.822 291.581 22.822C290.425 22.822 289.439 23.2413 288.623 24.08C287.83 24.896 287.433 26.0293 287.433 27.48C287.433 28.9307 287.83 30.0867 288.623 30.948C289.439 31.7867 290.425 32.206 291.581 32.206C292.737 32.206 293.712 31.7867 294.505 30.948C295.321 30.1093 295.729 28.9647 295.729 27.514ZM315.303 21.19C315.983 20.1473 316.833 19.3313 317.853 18.742C318.873 18.13 320.007 17.824 321.253 17.824V23.978H319.655C318.205 23.978 317.117 24.2953 316.391 24.93C315.666 25.542 315.303 26.63 315.303 28.194V37H309.489V18.028H315.303V21.19ZM336.408 37.272C334.55 37.272 332.872 36.8753 331.376 36.082C329.903 35.2887 328.736 34.1553 327.874 32.682C327.036 31.2087 326.616 29.486 326.616 27.514C326.616 25.5647 327.047 23.8533 327.908 22.38C328.77 20.884 329.948 19.7393 331.444 18.946C332.94 18.1527 334.618 17.756 336.476 17.756C338.335 17.756 340.012 18.1527 341.508 18.946C343.004 19.7393 344.183 20.884 345.044 22.38C345.906 23.8533 346.336 25.5647 346.336 27.514C346.336 29.4633 345.894 31.186 345.01 32.682C344.149 34.1553 342.959 35.2887 341.44 36.082C339.944 36.8753 338.267 37.272 336.408 37.272ZM336.408 32.24C337.519 32.24 338.46 31.832 339.23 31.016C340.024 30.2 340.42 29.0327 340.42 27.514C340.42 25.9953 340.035 24.828 339.264 24.012C338.516 23.196 337.587 22.788 336.476 22.788C335.343 22.788 334.402 23.196 333.654 24.012C332.906 24.8053 332.532 25.9727 332.532 27.514C332.532 29.0327 332.895 30.2 333.62 31.016C334.368 31.832 335.298 32.24 336.408 32.24ZM361.695 31.56L365.809 18.028H371.997L365.265 37H358.091L351.359 18.028H357.581L361.695 31.56ZM377.028 27.48C377.028 25.5307 377.391 23.8193 378.116 22.346C378.864 20.8727 379.873 19.7393 381.142 18.946C382.411 18.1527 383.828 17.756 385.392 17.756C386.729 17.756 387.897 18.028 388.894 18.572C389.914 19.116 390.696 19.83 391.24 20.714V18.028H397.054V37H391.24V34.314C390.673 35.198 389.88 35.912 388.86 36.456C387.863 37 386.695 37.272 385.358 37.272C383.817 37.272 382.411 36.8753 381.142 36.082C379.873 35.266 378.864 34.1213 378.116 32.648C377.391 31.152 377.028 29.4293 377.028 27.48ZM391.24 27.514C391.24 26.0633 390.832 24.9187 390.016 24.08C389.223 23.2413 388.248 22.822 387.092 22.822C385.936 22.822 384.95 23.2413 384.134 24.08C383.341 24.896 382.944 26.0293 382.944 27.48C382.944 28.9307 383.341 30.0867 384.134 30.948C384.95 31.7867 385.936 32.206 387.092 32.206C388.248 32.206 389.223 31.7867 390.016 30.948C390.832 30.1093 391.24 28.9647 391.24 27.514Z" fill="url(#paint0_linear_280_782)"/>
<path d="M54 52C63.1383 59.938 68.3863 60.0617 78 52" stroke="#55A8FF" stroke-width="8"/>
<defs>
<linearGradient id="paint0_linear_280_782" x1="1.86264e-06" y1="18.5" x2="367.552" y2="18.5" gradientUnits="userSpaceOnUse">
<stop stop-color="#38AFFF"/>
<stop offset="1" stop-color="#D689FF"/>
</linearGradient>
</defs>
</svg>
