<svg width="69" height="100" viewBox="0 0 69 100" fill="none" xmlns="http://www.w3.org/2000/svg">
<path d="M14.912 25.072V70H3.968V25.072H14.912ZM57.083 46.96C59.6857 47.5147 61.7763 48.816 63.355 50.864C64.9337 52.8693 65.723 55.1733 65.723 57.776C65.723 61.5307 64.4003 64.5173 61.755 66.736C59.1523 68.912 55.5043 70 50.811 70H29.883V25.072H50.107C54.6723 25.072 58.235 26.1173 60.795 28.208C63.3977 30.2987 64.699 33.136 64.699 36.72C64.699 39.3653 63.995 41.5627 62.587 43.312C61.2217 45.0613 59.387 46.2773 57.083 46.96ZM40.827 43.248H47.995C49.787 43.248 51.1523 42.864 52.091 42.096C53.0723 41.2853 53.563 40.112 53.563 38.576C53.563 37.04 53.0723 35.8667 52.091 35.056C51.1523 34.2453 49.787 33.84 47.995 33.84H40.827V43.248ZM48.891 61.168C50.7257 61.168 52.1337 60.7627 53.115 59.952C54.139 59.0987 54.651 57.8827 54.651 56.304C54.651 54.7253 54.1177 53.488 53.051 52.592C52.027 51.696 50.5977 51.248 48.763 51.248H40.827V61.168H48.891Z" fill="url(#paint0_linear_330_1003)"/>
<path d="M22 90C31.1383 97.938 36.3863 98.0617 46 90" stroke="#55A8FF" stroke-width="8"/>
<defs>
<linearGradient id="paint0_linear_330_1003" x1="3.21306e-07" y1="48" x2="63.4027" y2="48" gradientUnits="userSpaceOnUse">
<stop stop-color="#38AFFF"/>
<stop offset="1" stop-color="#D689FF"/>
</linearGradient>
</defs>
</svg>
