<svg width="16" height="16" viewBox="0 0 16 16" fill="none" xmlns="http://www.w3.org/2000/svg">
<path d="M8.72481 11.0125L8.94981 1.0125C8.96231 0.7375 8.72481 0.5 8.44981 0.5H6.98731C6.69981 0.5 6.47481 0.7375 6.48731 1.0125L6.71231 11.0125C6.72481 11.2875 6.93731 11.5 7.21231 11.5H8.21231C8.48731 11.5 8.71231 11.2875 8.72481 11.0125V11.0125Z" fill="#F44336"/>
<path opacity="0.2" d="M8.00029 6.25005C8.03779 6.01255 7.93779 2.97505 7.93779 2.97505C7.93779 2.97505 7.95029 2.53755 7.58779 2.50005C7.23779 2.46255 7.11279 2.78755 7.11279 3.01255C7.11279 3.23755 7.16279 5.70005 7.18779 5.92505C7.20029 6.15005 7.42529 6.38755 7.63779 6.45005C7.85029 6.51255 7.97529 6.42505 8.00029 6.25005V6.25005Z" fill="white"/>
<path opacity="0.2" d="M7.4501 2.0877C7.67791 2.0877 7.8626 1.90301 7.8626 1.6752C7.8626 1.44738 7.67791 1.2627 7.4501 1.2627C7.22228 1.2627 7.0376 1.44738 7.0376 1.6752C7.0376 1.90301 7.22228 2.0877 7.4501 2.0877Z" fill="white"/>
<path d="M8.0127 15.5C8.84112 15.5 9.5127 14.8284 9.5127 14C9.5127 13.1716 8.84112 12.5 8.0127 12.5C7.18427 12.5 6.5127 13.1716 6.5127 14C6.5127 14.8284 7.18427 15.5 8.0127 15.5Z" fill="#CC3333"/>
<path d="M7.8002 15.2874C8.51126 15.2874 9.0877 14.711 9.0877 13.9999C9.0877 13.2888 8.51126 12.7124 7.8002 12.7124C7.08913 12.7124 6.5127 13.2888 6.5127 13.9999C6.5127 14.711 7.08913 15.2874 7.8002 15.2874Z" fill="#F44336"/>
<path opacity="0.2" d="M7.06249 13.5498C7.21249 13.3248 7.53749 13.1373 7.87499 13.0873C7.96249 13.0748 8.03749 13.0748 8.11249 13.0998C8.16249 13.1248 8.21249 13.1748 8.17499 13.2248C8.14999 13.2748 8.08749 13.2873 8.03749 13.2998C7.72499 13.3873 7.43749 13.5998 7.26249 13.8498C7.19999 13.9498 7.08749 14.2123 6.96249 14.1498C6.83749 14.0623 6.87499 13.8248 7.06249 13.5498V13.5498Z" fill="white"/>
<path d="M8.9876 0.5H8.4501C8.7376 0.5 8.9626 0.7375 8.9501 1.0125L8.7251 11.0125C8.7126 11.2875 8.5001 11.5 8.2251 11.5H8.7501C9.0251 11.5 9.2501 11.2875 9.2501 11.0125L9.4751 1.0125C9.5001 0.7375 9.2626 0.5 8.9876 0.5Z" fill="#CC3333"/>
</svg>
