<svg width="1512" height="720" viewBox="0 0 1512 720" fill="none" xmlns="http://www.w3.org/2000/svg">
<path fill-rule="evenodd" clip-rule="evenodd" d="M0 45.1211L32.0212 37.6175C63.0417 29.0419 126.083 12.9627 189.125 4.38712C252.167 -3.11651 315.208 -3.11651 378.25 21.5383C441.292 45.1211 504.333 94.4306 567.375 77.2795C630.417 61.2003 693.458 -19.1957 756.5 4.38712C819.542 29.0419 882.583 158.747 945.625 174.827C1008.67 190.906 1071.71 94.4306 1134.75 53.6966C1197.79 12.9627 1260.83 29.0419 1323.87 61.2003C1386.92 94.4306 1449.96 142.668 1481.98 167.323L1513 190.906V386H1481.98C1449.96 386 1386.92 386 1323.87 386C1260.83 386 1197.79 386 1134.75 386C1071.71 386 1008.67 386 945.625 386C882.583 386 819.542 386 756.5 386C693.458 386 630.417 386 567.375 386C504.333 386 441.292 386 378.25 386C315.208 386 252.167 386 189.125 386C126.083 386 63.0417 386 32.0212 386H0V45.1211Z" fill="url(#paint0_linear_390_975)"/>
<path fill-rule="evenodd" clip-rule="evenodd" d="M1513 386L1549.5 443.5C1542.5 484.5 1482 472 1450 487C1419 502 1379 541.5 1372.5 548.5C1366 555.5 1261 689 1229 696C1198 704 1166 613 1135 560C1103 507 1072 492 1040 477C1009 462 977 447 946 477C914 507 883 583 851 590C820 598 788 537 756 499C725 462 693 447 662 469C630 492 599 552 567 552C536 552 504 494 473 456C441 418 410 406 378 399C347 391 315 391 284 399C252 406 221 418 189 479C158 539 126 643 95 689C63 734 32 719 16 711L0 704V386H16C32 386 63 386 95 386C126 386 158 386 189 386C221 386 252 386 284 386C315 386 347 386 378 386C410 386 441 386 473 386C504 386 536 386 567 386C599 386 630 386 662 386C693 386 725 386 756 386C788 386 820 386 851 386C883 386 914 386 946 386C977 386 1009 386 1040 386C1072 386 1103 386 1135 386C1166 386 1198 386 1229 386C1261 386 1292 386 1324 386C1355 386 1387 386 1418 386C1450 386 1481 386 1497 386H1513Z" fill="url(#paint1_linear_390_975)"/>
<defs>
<linearGradient id="paint0_linear_390_975" x1="0" y1="192.95" x2="1513" y2="192.95" gradientUnits="userSpaceOnUse">
<stop offset="0.0103879" stop-color="#0099FF" stop-opacity="0.78"/>
<stop offset="1" stop-color="#AD00FF" stop-opacity="0.46"/>
</linearGradient>
<linearGradient id="paint1_linear_390_975" x1="92.4995" y1="651.001" x2="1583" y2="462.001" gradientUnits="userSpaceOnUse">
<stop stop-color="#0099FF" stop-opacity="0.78"/>
<stop offset="1" stop-color="#AD00FF" stop-opacity="0.45"/>
</linearGradient>
</defs>
</svg>
